<svg xmlns="http://www.w3.org/2000/svg" xmlns:xlink="http://www.w3.org/1999/xlink" width="500" zoomAndPan="magnify" viewBox="0 0 375 149.999998" height="200" preserveAspectRatio="xMidYMid meet" version="1.0"><defs><g/></defs><g fill="#000000" fill-opacity="1"><g transform="translate(1.665282, 96.749996)"><g><path d="M 8.5625 -35.578125 C 7.113281 -35.578125 5.9375 -36.015625 5.03125 -36.890625 C 4.132812 -37.765625 3.6875 -38.894531 3.6875 -40.28125 C 3.6875 -41.632812 4.132812 -42.75 5.03125 -43.625 C 5.9375 -44.5 7.113281 -44.9375 8.5625 -44.9375 C 9.519531 -44.9375 10.375 -44.734375 11.125 -44.328125 C 11.875 -43.929688 12.453125 -43.378906 12.859375 -42.671875 C 13.273438 -41.972656 13.484375 -41.175781 13.484375 -40.28125 C 13.484375 -39.375 13.273438 -38.5625 12.859375 -37.84375 C 12.453125 -37.132812 11.875 -36.578125 11.125 -36.171875 C 10.375 -35.773438 9.519531 -35.578125 8.5625 -35.578125 Z M 4.578125 0 L 4.578125 -31.78125 L 12.5625 -31.78125 L 12.5625 0 Z M 4.578125 0 "/></g></g></g><g fill="#000000" fill-opacity="1"><g transform="translate(18.77532, 96.749996)"><g><path d="M 4.578125 0 L 4.578125 -31.78125 L 12.25 -31.78125 L 12.25 -27.109375 L 12.84375 -26.96875 C 14.820312 -30.570312 18.03125 -32.375 22.46875 -32.375 C 26.132812 -32.375 28.828125 -31.375 30.546875 -29.375 C 32.265625 -27.382812 33.125 -24.476562 33.125 -20.65625 L 33.125 0 L 25.15625 0 L 25.15625 -19.671875 C 25.15625 -21.785156 24.726562 -23.304688 23.875 -24.234375 C 23.03125 -25.171875 21.679688 -25.640625 19.828125 -25.640625 C 17.535156 -25.640625 15.75 -24.898438 14.46875 -23.421875 C 13.195312 -21.941406 12.5625 -19.617188 12.5625 -16.453125 L 12.5625 0 Z M 4.578125 0 "/></g></g></g><g fill="#000000" fill-opacity="1"><g transform="translate(55.991092, 96.749996)"><g><path d="M 4.578125 0 L 4.578125 -31.78125 L 12.25 -31.78125 L 12.25 -27.109375 L 12.84375 -26.96875 C 14.820312 -30.570312 18.03125 -32.375 22.46875 -32.375 C 26.132812 -32.375 28.828125 -31.375 30.546875 -29.375 C 32.265625 -27.382812 33.125 -24.476562 33.125 -20.65625 L 33.125 0 L 25.15625 0 L 25.15625 -19.671875 C 25.15625 -21.785156 24.726562 -23.304688 23.875 -24.234375 C 23.03125 -25.171875 21.679688 -25.640625 19.828125 -25.640625 C 17.535156 -25.640625 15.75 -24.898438 14.46875 -23.421875 C 13.195312 -21.941406 12.5625 -19.617188 12.5625 -16.453125 L 12.5625 0 Z M 4.578125 0 "/></g></g></g><g fill="#000000" fill-opacity="1"><g transform="translate(93.206865, 96.749996)"><g><path d="M 12.390625 0.609375 C 10.347656 0.609375 8.578125 0.234375 7.078125 -0.515625 C 5.585938 -1.265625 4.4375 -2.363281 3.625 -3.8125 C 2.820312 -5.269531 2.421875 -7.015625 2.421875 -9.046875 C 2.421875 -10.929688 2.820312 -12.507812 3.625 -13.78125 C 4.4375 -15.0625 5.6875 -16.109375 7.375 -16.921875 C 9.0625 -17.742188 11.269531 -18.375 14 -18.8125 C 15.90625 -19.113281 17.351562 -19.445312 18.34375 -19.8125 C 19.332031 -20.1875 20 -20.601562 20.34375 -21.0625 C 20.6875 -21.519531 20.859375 -22.101562 20.859375 -22.8125 C 20.859375 -23.832031 20.5 -24.609375 19.78125 -25.140625 C 19.070312 -25.679688 17.894531 -25.953125 16.25 -25.953125 C 14.476562 -25.953125 12.796875 -25.554688 11.203125 -24.765625 C 9.609375 -23.984375 8.226562 -22.953125 7.0625 -21.671875 L 6.484375 -21.671875 L 3.140625 -26.703125 C 4.753906 -28.492188 6.722656 -29.882812 9.046875 -30.875 C 11.367188 -31.875 13.90625 -32.375 16.65625 -32.375 C 20.851562 -32.375 23.894531 -31.476562 25.78125 -29.6875 C 27.664062 -27.90625 28.609375 -25.375 28.609375 -22.09375 L 28.609375 -8.296875 C 28.609375 -6.878906 29.234375 -6.171875 30.484375 -6.171875 C 30.960938 -6.171875 31.429688 -6.253906 31.890625 -6.421875 L 32.296875 -6.3125 L 32.875 -0.75 C 32.425781 -0.457031 31.804688 -0.21875 31.015625 -0.03125 C 30.234375 0.144531 29.375 0.234375 28.4375 0.234375 C 26.53125 0.234375 25.046875 -0.128906 23.984375 -0.859375 C 22.921875 -1.585938 22.15625 -2.734375 21.6875 -4.296875 L 21.09375 -4.34375 C 19.53125 -1.039062 16.628906 0.609375 12.390625 0.609375 Z M 14.921875 -5.359375 C 16.765625 -5.359375 18.238281 -5.976562 19.34375 -7.21875 C 20.445312 -8.457031 21 -10.179688 21 -12.390625 L 21 -15.609375 L 20.453125 -15.734375 C 19.972656 -15.347656 19.34375 -15.023438 18.5625 -14.765625 C 17.789062 -14.503906 16.675781 -14.25 15.21875 -14 C 13.488281 -13.707031 12.242188 -13.210938 11.484375 -12.515625 C 10.722656 -11.816406 10.34375 -10.820312 10.34375 -9.53125 C 10.34375 -8.164062 10.742188 -7.128906 11.546875 -6.421875 C 12.359375 -5.710938 13.484375 -5.359375 14.921875 -5.359375 Z M 14.921875 -5.359375 "/></g></g></g><g fill="#000000" fill-opacity="1"><g transform="translate(126.706821, 96.749996)"><g><path d="M 21.921875 -7.578125 L 24 -1.671875 C 23.132812 -0.960938 22.046875 -0.40625 20.734375 0 C 19.429688 0.40625 17.957031 0.609375 16.3125 0.609375 C 12.875 0.609375 10.257812 -0.328125 8.46875 -2.203125 C 6.6875 -4.078125 5.796875 -6.800781 5.796875 -10.375 L 5.796875 -25.46875 L 0.953125 -25.46875 L 0.953125 -31.8125 L 5.796875 -31.8125 L 5.796875 -38 L 13.765625 -39.296875 L 13.765625 -31.8125 L 22.78125 -31.8125 L 22.78125 -25.46875 L 13.765625 -25.46875 L 13.765625 -10.953125 C 13.765625 -9.367188 14.09375 -8.21875 14.75 -7.5 C 15.40625 -6.78125 16.359375 -6.421875 17.609375 -6.421875 C 19.023438 -6.421875 20.257812 -6.804688 21.3125 -7.578125 Z M 21.921875 -7.578125 "/></g></g></g><g fill="#000000" fill-opacity="1"><g transform="translate(151.392516, 96.749996)"><g><path d="M 12.390625 0.609375 C 10.347656 0.609375 8.578125 0.234375 7.078125 -0.515625 C 5.585938 -1.265625 4.4375 -2.363281 3.625 -3.8125 C 2.820312 -5.269531 2.421875 -7.015625 2.421875 -9.046875 C 2.421875 -10.929688 2.820312 -12.507812 3.625 -13.78125 C 4.4375 -15.0625 5.6875 -16.109375 7.375 -16.921875 C 9.0625 -17.742188 11.269531 -18.375 14 -18.8125 C 15.90625 -19.113281 17.351562 -19.445312 18.34375 -19.8125 C 19.332031 -20.1875 20 -20.601562 20.34375 -21.0625 C 20.6875 -21.519531 20.859375 -22.101562 20.859375 -22.8125 C 20.859375 -23.832031 20.5 -24.609375 19.78125 -25.140625 C 19.070312 -25.679688 17.894531 -25.953125 16.25 -25.953125 C 14.476562 -25.953125 12.796875 -25.554688 11.203125 -24.765625 C 9.609375 -23.984375 8.226562 -22.953125 7.0625 -21.671875 L 6.484375 -21.671875 L 3.140625 -26.703125 C 4.753906 -28.492188 6.722656 -29.882812 9.046875 -30.875 C 11.367188 -31.875 13.90625 -32.375 16.65625 -32.375 C 20.851562 -32.375 23.894531 -31.476562 25.78125 -29.6875 C 27.664062 -27.90625 28.609375 -25.375 28.609375 -22.09375 L 28.609375 -8.296875 C 28.609375 -6.878906 29.234375 -6.171875 30.484375 -6.171875 C 30.960938 -6.171875 31.429688 -6.253906 31.890625 -6.421875 L 32.296875 -6.3125 L 32.875 -0.75 C 32.425781 -0.457031 31.804688 -0.21875 31.015625 -0.03125 C 30.234375 0.144531 29.375 0.234375 28.4375 0.234375 C 26.53125 0.234375 25.046875 -0.128906 23.984375 -0.859375 C 22.921875 -1.585938 22.15625 -2.734375 21.6875 -4.296875 L 21.09375 -4.34375 C 19.53125 -1.039062 16.628906 0.609375 12.390625 0.609375 Z M 14.921875 -5.359375 C 16.765625 -5.359375 18.238281 -5.976562 19.34375 -7.21875 C 20.445312 -8.457031 21 -10.179688 21 -12.390625 L 21 -15.609375 L 20.453125 -15.734375 C 19.972656 -15.347656 19.34375 -15.023438 18.5625 -14.765625 C 17.789062 -14.503906 16.675781 -14.25 15.21875 -14 C 13.488281 -13.707031 12.242188 -13.210938 11.484375 -12.515625 C 10.722656 -11.816406 10.34375 -10.820312 10.34375 -9.53125 C 10.34375 -8.164062 10.742188 -7.128906 11.546875 -6.421875 C 12.359375 -5.710938 13.484375 -5.359375 14.921875 -5.359375 Z M 14.921875 -5.359375 "/></g></g></g><g fill="#85193c" fill-opacity="1"><g transform="translate(184.899646, 96.749996)"><g><path d="M 37.046875 0 L 28.546875 0 L 27.421875 -9.703125 L 11.40625 -9.703125 L 6.25 0 L -2.734375 0 L 20.625 -42.125 L 31.34375 -42.125 Z M 24 -33.328125 L 15.15625 -16.703125 L 26.625 -16.703125 L 24.71875 -33.328125 Z M 24 -33.328125 "/></g></g></g><g fill="#85193c" fill-opacity="1"><g transform="translate(225.946454, 96.749996)"><g><path d="M 13.046875 0.609375 C 11.035156 0.609375 9.234375 0.179688 7.640625 -0.671875 C 6.046875 -1.523438 4.78125 -2.835938 3.84375 -4.609375 C 2.914062 -6.390625 2.453125 -8.617188 2.453125 -11.296875 C 2.453125 -13.054688 2.679688 -15.035156 3.140625 -17.234375 C 4.191406 -22.160156 6.101562 -25.914062 8.875 -28.5 C 11.65625 -31.082031 15.171875 -32.375 19.421875 -32.375 C 21.359375 -32.375 23 -31.984375 24.34375 -31.203125 C 25.6875 -30.429688 26.734375 -29.34375 27.484375 -27.9375 L 28.125 -28.09375 L 31.625 -44.53125 L 39.609375 -44.53125 L 30.140625 0 L 22.15625 0 L 22.984375 -3.828125 L 22.40625 -3.953125 C 21.257812 -2.453125 19.972656 -1.316406 18.546875 -0.546875 C 17.128906 0.222656 15.296875 0.609375 13.046875 0.609375 Z M 16.3125 -6.171875 C 18.550781 -6.171875 20.46875 -6.910156 22.0625 -8.390625 C 23.65625 -9.878906 24.789062 -12.179688 25.46875 -15.296875 C 25.757812 -16.679688 25.90625 -17.898438 25.90625 -18.953125 C 25.90625 -21.179688 25.375 -22.847656 24.3125 -23.953125 C 23.257812 -25.054688 21.90625 -25.609375 20.25 -25.609375 C 17.96875 -25.609375 16.039062 -24.828125 14.46875 -23.265625 C 12.90625 -21.710938 11.804688 -19.441406 11.171875 -16.453125 C 10.867188 -15.023438 10.71875 -13.726562 10.71875 -12.5625 C 10.71875 -10.375 11.21875 -8.757812 12.21875 -7.71875 C 13.226562 -6.6875 14.59375 -6.171875 16.3125 -6.171875 Z M 16.3125 -6.171875 "/></g></g></g><g fill="#85193c" fill-opacity="1"><g transform="translate(264.02637, 96.749996)"><g><path d="M 1.203125 0 L 7.953125 -31.78125 L 15.609375 -31.78125 L 14.71875 -27.515625 L 15.296875 -27.390625 C 16.367188 -29.066406 17.695312 -30.316406 19.28125 -31.140625 C 20.875 -31.960938 22.773438 -32.375 24.984375 -32.375 C 29.472656 -32.375 32.1875 -30.515625 33.125 -26.796875 L 33.734375 -26.796875 C 34.941406 -28.710938 36.363281 -30.117188 38 -31.015625 C 39.644531 -31.921875 41.613281 -32.375 43.90625 -32.375 C 46.664062 -32.375 48.75 -31.660156 50.15625 -30.234375 C 51.570312 -28.804688 52.28125 -26.804688 52.28125 -24.234375 C 52.28125 -23.078125 52.140625 -21.835938 51.859375 -20.515625 L 47.5 0 L 39.53125 0 L 43.84375 -20.375 C 43.976562 -20.988281 44.046875 -21.582031 44.046875 -22.15625 C 44.046875 -24.476562 42.722656 -25.640625 40.078125 -25.640625 C 38.035156 -25.640625 36.328125 -24.945312 34.953125 -23.5625 C 33.585938 -22.175781 32.578125 -19.941406 31.921875 -16.859375 L 28.34375 0 L 20.375 0 L 24.6875 -20.375 C 24.820312 -20.988281 24.890625 -21.582031 24.890625 -22.15625 C 24.890625 -24.476562 23.554688 -25.640625 20.890625 -25.640625 C 18.867188 -25.640625 17.171875 -24.957031 15.796875 -23.59375 C 14.421875 -22.226562 13.421875 -20.039062 12.796875 -17.03125 L 9.1875 0 Z M 1.203125 0 "/></g></g></g><g fill="#85193c" fill-opacity="1"><g transform="translate(318.985885, 96.749996)"><g><path d="M 13.734375 -35.578125 C 12.296875 -35.578125 11.125 -36.015625 10.21875 -36.890625 C 9.320312 -37.765625 8.875 -38.894531 8.875 -40.28125 C 8.875 -41.632812 9.320312 -42.75 10.21875 -43.625 C 11.125 -44.5 12.296875 -44.9375 13.734375 -44.9375 C 14.703125 -44.9375 15.554688 -44.734375 16.296875 -44.328125 C 17.046875 -43.929688 17.628906 -43.378906 18.046875 -42.671875 C 18.460938 -41.972656 18.671875 -41.175781 18.671875 -40.28125 C 18.671875 -39.375 18.460938 -38.5625 18.046875 -37.84375 C 17.628906 -37.132812 17.046875 -36.578125 16.296875 -36.171875 C 15.554688 -35.773438 14.703125 -35.578125 13.734375 -35.578125 Z M 1.203125 0 L 7.984375 -31.78125 L 15.953125 -31.78125 L 9.1875 0 Z M 1.203125 0 "/></g></g></g><g fill="#85193c" fill-opacity="1"><g transform="translate(336.095923, 96.749996)"><g><path d="M 1.203125 0 L 7.953125 -31.78125 L 15.609375 -31.78125 L 14.640625 -27.109375 L 15.1875 -26.96875 C 16.375 -28.75 17.785156 -30.09375 19.421875 -31 C 21.066406 -31.914062 23.050781 -32.375 25.375 -32.375 C 28.300781 -32.375 30.523438 -31.582031 32.046875 -30 C 33.578125 -28.414062 34.34375 -26.222656 34.34375 -23.421875 C 34.34375 -22.234375 34.195312 -20.925781 33.90625 -19.5 L 29.765625 0 L 21.78125 0 L 25.953125 -19.671875 C 26.085938 -20.265625 26.15625 -20.867188 26.15625 -21.484375 C 26.15625 -22.816406 25.769531 -23.84375 25 -24.5625 C 24.238281 -25.28125 23.109375 -25.640625 21.609375 -25.640625 C 19.398438 -25.640625 17.523438 -24.898438 15.984375 -23.421875 C 14.453125 -21.941406 13.347656 -19.617188 12.671875 -16.453125 L 9.1875 0 Z M 1.203125 0 "/></g></g></g></svg>